<svg width="600" height="600" viewBox="0 0 600 600" fill="none" xmlns="http://www.w3.org/2000/svg">
<rect width="600" height="600" fill="white"/>
<g clip-path="url(#clip0_2_2)">
<path d="M493.451 178.266H491.045V112.223C491.045 102.086 487.021 92.3636 479.858 85.1953C472.695 78.0271 462.979 74 452.849 74H313.028C308.012 73.9999 303.045 74.9885 298.411 76.9094C293.777 78.8303 289.566 81.6458 286.019 85.1951C282.472 88.7445 279.659 92.9582 277.739 97.5957C275.82 102.233 274.832 107.204 274.832 112.223V474.536C274.832 484.673 278.856 494.396 286.019 501.564C293.182 508.732 302.897 512.759 313.027 512.759H452.847C462.977 512.759 472.692 508.731 479.855 501.563C487.017 494.395 491.041 484.673 491.041 474.536V225.276H493.447L493.451 178.266Z" fill="#090814"/>
<path d="M483.21 109.663V477.095C483.209 484.78 480.159 492.151 474.729 497.586C469.3 503.021 461.936 506.077 454.256 506.081H311.562C303.877 506.082 296.508 503.028 291.073 497.591C285.639 492.155 282.585 484.78 282.584 477.09V109.664C282.586 101.975 285.64 94.6019 291.074 89.1662C296.508 83.7306 303.877 80.6775 311.56 80.6785H328.87C328.02 82.7701 327.696 85.0386 327.927 87.2845C328.159 89.5305 328.938 91.6853 330.196 93.5594C331.455 95.4334 333.154 96.9695 335.144 98.0325C337.135 99.0956 339.356 99.653 341.612 99.6559H422.962C425.219 99.653 427.44 99.0956 429.43 98.0325C431.421 96.9695 433.12 95.4334 434.378 93.5592C435.637 91.685 436.416 89.5302 436.647 87.2841C436.879 85.038 436.555 82.7695 435.705 80.6779H454.246C461.926 80.6789 469.291 83.7315 474.722 89.1648C480.153 94.5981 483.206 101.967 483.21 109.653V109.663Z" fill="white"/>
<path d="M382.871 257.164C415.771 257.164 442.442 230.474 442.442 197.55C442.442 164.626 415.771 137.935 382.871 137.935C349.97 137.935 323.299 164.626 323.299 197.55C323.299 230.474 349.97 257.164 382.871 257.164Z" fill="#024873"/>
<path d="M447.841 321.308H321.044C320.422 321.308 319.825 321.06 319.385 320.619C318.944 320.179 318.697 319.582 318.696 318.959V287.484C318.697 286.861 318.945 286.264 319.385 285.824C319.825 285.383 320.422 285.135 321.044 285.135H447.841C448.463 285.135 449.06 285.383 449.5 285.824C449.94 286.264 450.188 286.861 450.189 287.484V318.957C450.188 319.58 449.94 320.177 449.5 320.617C449.06 321.058 448.463 321.306 447.841 321.306V321.308ZM321.044 286.074C320.67 286.074 320.312 286.222 320.048 286.487C319.784 286.751 319.635 287.11 319.635 287.484V318.957C319.635 319.331 319.784 319.689 320.048 319.953C320.312 320.218 320.67 320.366 321.044 320.367H447.841C448.214 320.366 448.572 320.218 448.837 319.953C449.101 319.689 449.249 319.331 449.25 318.957V287.484C449.249 287.11 449.101 286.751 448.837 286.487C448.572 286.222 448.214 286.074 447.841 286.074H321.044Z" fill="#E6E6E6"/>
<path d="M360.258 296.469C359.827 296.477 359.417 296.654 359.116 296.962C358.814 297.27 358.645 297.683 358.645 298.114C358.645 298.545 358.814 298.958 359.116 299.266C359.417 299.574 359.827 299.751 360.258 299.759H437.741C438.174 299.771 438.594 299.612 438.91 299.315C439.227 299.019 439.413 298.609 439.43 298.176C439.446 297.743 439.29 297.321 438.997 297.001C438.704 296.682 438.297 296.491 437.864 296.471H437.792H360.258V296.469Z" fill="#E6E6E6"/>
<path d="M360.258 306.337C359.822 306.337 359.404 306.51 359.095 306.819C358.787 307.127 358.614 307.546 358.614 307.982C358.614 308.418 358.787 308.836 359.095 309.145C359.404 309.453 359.822 309.627 360.258 309.627H437.741C438.174 309.639 438.594 309.479 438.91 309.183C439.227 308.886 439.413 308.477 439.43 308.044C439.446 307.611 439.29 307.188 438.997 306.869C438.704 306.55 438.297 306.359 437.864 306.339H437.792H360.258V306.337Z" fill="#E6E6E6"/>
<path d="M447.841 373.771H321.044C320.422 373.77 319.825 373.522 319.385 373.082C318.944 372.641 318.697 372.044 318.696 371.421V339.947C318.697 339.324 318.945 338.727 319.385 338.286C319.825 337.846 320.422 337.598 321.044 337.597H447.841C448.463 337.598 449.06 337.846 449.5 338.286C449.94 338.727 450.188 339.324 450.189 339.947V371.422C450.187 372.044 449.939 372.641 449.499 373.08C449.059 373.52 448.462 373.767 447.841 373.768V373.771ZM321.044 338.537C320.67 338.537 320.312 338.686 320.048 338.95C319.784 339.214 319.635 339.573 319.635 339.947V371.422C319.635 371.796 319.784 372.155 320.048 372.419C320.312 372.683 320.67 372.832 321.044 372.832H447.841C448.214 372.832 448.572 372.683 448.837 372.419C449.101 372.155 449.249 371.796 449.25 371.422V339.947C449.249 339.573 449.101 339.214 448.837 338.95C448.572 338.686 448.214 338.537 447.841 338.537H321.044Z" fill="#E6E6E6"/>
<path d="M360.258 349.102C359.822 349.102 359.404 349.275 359.095 349.584C358.787 349.892 358.614 350.311 358.614 350.747C358.614 351.183 358.787 351.602 359.095 351.91C359.404 352.218 359.822 352.392 360.258 352.392H437.741C437.958 352.398 438.174 352.36 438.377 352.282C438.58 352.204 438.765 352.086 438.922 351.935C439.079 351.785 439.204 351.605 439.291 351.405C439.378 351.206 439.425 350.991 439.429 350.774C439.432 350.557 439.393 350.34 439.312 350.138C439.232 349.936 439.112 349.752 438.96 349.597C438.808 349.441 438.627 349.317 438.427 349.233C438.227 349.148 438.012 349.103 437.794 349.102H360.258Z" fill="#E6E6E6"/>
<path d="M360.258 358.972C359.822 358.972 359.404 359.145 359.095 359.454C358.787 359.762 358.614 360.181 358.614 360.617C358.614 361.053 358.787 361.472 359.095 361.78C359.404 362.089 359.822 362.262 360.258 362.262H437.741C437.958 362.268 438.174 362.23 438.377 362.152C438.58 362.074 438.765 361.956 438.922 361.805C439.079 361.655 439.204 361.475 439.291 361.276C439.378 361.076 439.425 360.862 439.429 360.644C439.432 360.427 439.393 360.211 439.312 360.009C439.232 359.807 439.112 359.622 438.96 359.467C438.808 359.311 438.627 359.188 438.427 359.103C438.227 359.018 438.012 358.973 437.794 358.972H360.258Z" fill="#E6E6E6"/>
<path d="M447.841 426.405H321.044C320.422 426.404 319.825 426.156 319.385 425.716C318.944 425.275 318.697 424.678 318.696 424.055V392.581C318.697 391.958 318.945 391.361 319.385 390.92C319.825 390.48 320.422 390.232 321.044 390.231H447.841C448.463 390.232 449.06 390.48 449.5 390.92C449.94 391.361 450.188 391.958 450.189 392.581V424.056C450.188 424.679 449.94 425.276 449.5 425.717C449.06 426.157 448.463 426.405 447.841 426.406V426.405ZM321.044 391.171C320.67 391.171 320.312 391.32 320.048 391.584C319.784 391.848 319.635 392.207 319.635 392.581V424.056C319.635 424.43 319.784 424.789 320.048 425.053C320.312 425.317 320.67 425.466 321.044 425.466H447.841C448.214 425.466 448.572 425.317 448.837 425.053C449.101 424.789 449.249 424.43 449.25 424.056V392.581C449.249 392.207 449.101 391.848 448.837 391.584C448.572 391.32 448.214 391.171 447.841 391.171H321.044Z" fill="#E6E6E6"/>
<path d="M360.258 401.738C359.822 401.738 359.404 401.911 359.095 402.22C358.787 402.528 358.614 402.947 358.614 403.383C358.614 403.819 358.787 404.237 359.095 404.546C359.404 404.854 359.822 405.028 360.258 405.028H437.741C438.174 405.04 438.594 404.88 438.91 404.584C439.227 404.287 439.413 403.878 439.43 403.445C439.446 403.012 439.29 402.589 438.997 402.27C438.704 401.951 438.297 401.76 437.864 401.74H437.792H360.258V401.738Z" fill="#E6E6E6"/>
<path d="M360.258 411.607C359.822 411.607 359.404 411.781 359.095 412.089C358.787 412.398 358.614 412.816 358.614 413.252C358.614 413.689 358.787 414.107 359.095 414.416C359.404 414.724 359.822 414.897 360.258 414.897H437.741C438.174 414.909 438.594 414.75 438.91 414.454C439.227 414.157 439.413 413.748 439.43 413.314C439.446 412.881 439.29 412.459 438.997 412.14C438.704 411.82 438.297 411.63 437.864 411.609H437.792H360.258V411.607Z" fill="#E6E6E6"/>
<path d="M564.804 513.907H109.196C108.535 513.907 108 513.618 108 513.262C108 512.906 108.535 512.617 109.196 512.617H564.805C565.465 512.617 566.001 512.906 566.001 513.262C566.001 513.618 565.465 513.907 564.804 513.907Z" fill="#E6E6E6"/>
<path d="M336.863 312.897C342.309 312.897 346.725 308.478 346.725 303.028C346.725 297.577 342.309 293.159 336.863 293.159C331.416 293.159 327.001 297.577 327.001 303.028C327.001 308.478 331.416 312.897 336.863 312.897Z" fill="#024873"/>
<path d="M332.142 301.184C332.028 301.184 331.936 301.921 331.936 302.829C331.936 303.737 332.028 304.474 332.142 304.474H341.839C341.952 304.489 342.046 303.765 342.048 302.857C342.111 302.291 342.042 301.719 341.845 301.185H332.142V301.184Z" fill="#E6E6E6"/>
<path d="M336.863 365.552C342.309 365.552 346.725 361.134 346.725 355.684C346.725 350.233 342.309 345.815 336.863 345.815C331.416 345.815 327.001 350.233 327.001 355.684C327.001 361.134 331.416 365.552 336.863 365.552Z" fill="#024873"/>
<path d="M332.142 353.84C332.028 353.84 331.936 354.577 331.936 355.485C331.936 356.393 332.028 357.13 332.142 357.13H341.839C341.952 357.145 342.046 356.421 342.048 355.512C342.111 354.947 342.042 354.375 341.845 353.841L332.142 353.84Z" fill="#E6E6E6"/>
<path d="M336.863 418.187C342.309 418.187 346.725 413.768 346.725 408.318C346.725 402.867 342.309 398.449 336.863 398.449C331.416 398.449 327.001 402.867 327.001 408.318C327.001 413.768 331.416 418.187 336.863 418.187Z" fill="#024873"/>
<path d="M332.142 406.474C332.028 406.474 331.936 407.211 331.936 408.119C331.936 409.027 332.028 409.764 332.142 409.764H341.839C341.952 409.779 342.046 409.055 342.048 408.147C342.111 407.581 342.042 407.009 341.845 406.475L332.142 406.474Z" fill="#E6E6E6"/>
<path d="M370.004 181.179L366.514 184.671L395.741 213.919L399.231 210.427L370.004 181.179Z" fill="white"/>
<path d="M399.23 184.674L395.74 181.182L366.514 210.43L370.003 213.922L399.23 184.674Z" fill="white"/>
<path d="M132.034 209.647C134.427 209.647 136.367 207.04 136.367 203.824C136.367 200.607 134.427 198 132.034 198C129.64 198 127.7 200.607 127.7 203.824C127.7 207.04 129.64 209.647 132.034 209.647Z" fill="#E6E6E6"/>
<path d="M209.723 412.967L204.684 382.595C204.582 381.98 204.728 381.35 205.09 380.843C205.452 380.336 205.999 379.994 206.612 379.891L229.5 376.077C230.113 375.975 230.742 376.122 231.248 376.484C231.753 376.847 232.095 377.395 232.198 378.01L237.237 408.381C237.339 408.996 237.192 409.626 236.831 410.133C236.469 410.64 235.922 410.983 235.308 411.086L212.421 414.9C211.808 415.001 211.179 414.855 210.673 414.492C210.167 414.13 209.826 413.581 209.723 412.967Z" fill="#061823"/>
<path d="M209.956 403.501L206.717 383.975C206.622 383.399 206.759 382.809 207.097 382.334C207.436 381.86 207.949 381.539 208.523 381.443L228.193 378.165C228.767 378.07 229.356 378.207 229.83 378.546C230.304 378.886 230.624 379.399 230.72 379.975L235.204 407.002C235.299 407.577 235.162 408.167 234.823 408.642C234.485 409.117 233.972 409.438 233.398 409.534L221.213 411.565C218.653 411.988 216.031 411.377 213.921 409.865C211.811 408.354 210.385 406.065 209.956 403.501Z" fill="white"/>
<path d="M210.805 388.892C210.713 388.33 210.846 387.753 211.177 387.289C211.508 386.825 212.009 386.512 212.571 386.418L226.215 384.144C226.493 384.097 226.778 384.106 227.052 384.17C227.327 384.234 227.586 384.351 227.816 384.516C228.045 384.68 228.24 384.888 228.389 385.128C228.538 385.367 228.638 385.634 228.685 385.913C228.731 386.191 228.722 386.476 228.658 386.752C228.595 387.027 228.477 387.287 228.314 387.516C228.15 387.746 227.942 387.941 227.703 388.091C227.464 388.24 227.198 388.341 226.92 388.387L213.275 390.661C212.713 390.754 212.138 390.62 211.675 390.289C211.212 389.957 210.899 389.455 210.805 388.892Z" fill="#024873"/>
<path d="M211.901 395.494C211.808 394.931 211.942 394.355 212.273 393.891C212.604 393.427 213.105 393.113 213.666 393.019L227.311 390.745C227.589 390.699 227.873 390.708 228.148 390.772C228.422 390.836 228.682 390.953 228.911 391.117C229.14 391.281 229.335 391.489 229.484 391.729C229.633 391.969 229.734 392.236 229.78 392.514C229.826 392.793 229.817 393.078 229.754 393.353C229.69 393.628 229.573 393.888 229.409 394.118C229.245 394.348 229.037 394.543 228.798 394.692C228.559 394.842 228.293 394.943 228.015 394.989L214.37 397.263C213.809 397.356 213.233 397.222 212.77 396.89C212.307 396.559 211.995 396.056 211.901 395.494Z" fill="#024873"/>
<path d="M212.996 402.095C212.903 401.533 213.037 400.956 213.368 400.492C213.699 400.028 214.2 399.715 214.761 399.621L228.406 397.347C228.968 397.253 229.543 397.387 230.006 397.719C230.469 398.05 230.782 398.553 230.875 399.116C230.969 399.679 230.835 400.255 230.504 400.72C230.173 401.184 229.672 401.497 229.11 401.591L215.465 403.865C214.904 403.957 214.329 403.823 213.866 403.492C213.403 403.16 213.09 402.658 212.996 402.095Z" fill="#024873"/>
<path d="M199.389 384.341C198.793 383.668 198.351 382.873 198.095 382.011C197.838 381.149 197.774 380.241 197.905 379.352C198.037 378.462 198.362 377.612 198.857 376.862C199.351 376.112 200.004 375.479 200.77 375.009L192.786 336.913L203.367 340.99L209.493 377.385C210.196 378.726 210.383 380.278 210.02 381.748C209.658 383.218 208.769 384.503 207.524 385.361C206.278 386.218 204.762 386.588 203.263 386.4C201.764 386.212 200.385 385.479 199.389 384.341Z" fill="#FFCDB8"/>
<path d="M195.867 504.831L204.576 504.83L208.719 471.163L195.865 471.164L195.867 504.831Z" fill="#FFCDB8"/>
<path d="M193.645 501.981L196.096 501.981L205.667 498.08L210.797 501.98C213.696 501.98 216.476 503.135 218.526 505.189C220.576 507.243 221.728 510.029 221.728 512.935V513.291L193.645 513.292L193.645 501.981Z" fill="#061823"/>
<path d="M117.171 493.482L124.966 497.376L143.66 469.097L132.156 463.351L117.171 493.482Z" fill="#FFCDB8"/>
<path d="M116.451 489.939L118.645 491.035L128.947 491.822L131.802 497.606L131.803 497.607C134.397 498.903 136.372 501.179 137.292 503.934C138.212 506.689 138.003 509.697 136.71 512.297L136.551 512.616L111.417 500.062L116.451 489.939Z" fill="#061823"/>
<path d="M199.725 351.927L144.348 353.375L145.311 380.4C145.311 380.4 144.348 387.639 146.274 389.569C148.201 391.5 149.164 391.5 148.201 394.878C147.238 398.256 144.748 430.533 144.748 430.533C144.748 430.533 122.019 470.808 122.983 471.773C123.946 472.739 124.909 471.773 123.946 474.186C122.983 476.599 122.019 475.634 122.983 476.599C123.836 477.521 124.639 478.488 125.39 479.495H141.087C141.087 479.495 141.964 474.669 141.964 474.186C141.964 473.704 142.927 470.808 142.927 470.326C142.927 469.843 170.351 440.724 170.351 440.724L176.13 392.465L190.094 439.759C190.094 439.759 190.094 481.262 191.057 482.227C192.021 483.192 192.021 482.709 191.539 484.64C191.057 486.57 189.131 486.088 190.576 487.535C192.021 488.983 192.502 486.57 192.021 488.983L191.539 491.396L210.039 491.603C210.039 491.603 211.965 487.535 211.002 486.088C210.039 484.64 210.097 485.035 211.272 482.666C212.447 480.296 212.929 479.814 212.447 479.331C211.965 478.849 211.965 476.282 211.965 476.282C211.965 476.282 205.022 381.365 205.022 379.917C204.986 379.172 205.123 378.429 205.422 377.746V375.781L203.577 368.818L199.725 351.927Z" fill="#061823"/>
<path d="M249.645 486.693L250.122 475.926C255.104 473.258 260.659 471.848 266.307 471.82C258.534 478.189 259.505 490.467 254.235 499.032C252.571 501.69 250.331 503.94 247.682 505.613C245.033 507.286 242.041 508.341 238.93 508.698L232.425 512.689C231.533 507.702 231.729 502.581 233.002 497.677C234.275 492.774 236.593 488.206 239.797 484.287C241.616 482.106 243.702 480.163 246.005 478.505C247.563 482.622 249.645 486.693 249.645 486.693Z" fill="#F2F2F2"/>
<path d="M171.051 257.15L198.789 313.369L193.362 381.598L157.918 378.352L151.562 265.36L171.051 257.15Z" fill="#024873"/>
<path d="M210 374.066L193.792 372.581L193.767 372.375L182.89 282.117L185.324 275.354C185.906 273.748 186.893 272.32 188.189 271.21C189.485 270.1 191.045 269.344 192.718 269.016C193.993 268.77 195.304 268.779 196.575 269.043C197.846 269.307 199.052 269.82 200.125 270.553C201.197 271.287 202.114 272.225 202.823 273.315C203.532 274.405 204.018 275.625 204.254 276.904L207.165 292.661L211.295 345.925L210 374.066Z" fill="#024873"/>
<path d="M167.8 265.487L171.069 257.649L181.186 257.827L191.736 272.782L202.809 319.45C202.809 319.45 206.786 353.541 202.809 355.34C198.832 357.14 185.352 354.917 185.352 354.917L167.8 265.487Z" fill="#EEEEEE"/>
<path d="M181.186 257.827C181.186 257.827 202.98 270.452 203.832 277.043C204.685 283.633 207.539 364.298 207.539 364.298L199.832 359.307L197.725 329.907L188.32 269.716L181.186 257.827Z" fill="#024873"/>
<path d="M176.042 254.155C184.245 254.155 190.895 247.49 190.895 239.269C190.895 231.048 184.245 224.384 176.042 224.384C167.839 224.384 161.189 231.048 161.189 239.269C161.189 247.49 167.839 254.155 176.042 254.155Z" fill="#FFCDB8"/>
<path d="M159.194 229.489C160.862 226.903 163.992 225.179 167.026 225.664C167.309 223.723 168.117 221.897 169.363 220.385C170.609 218.873 172.245 217.733 174.093 217.088C175.941 216.443 177.93 216.319 179.844 216.729C181.757 217.138 183.522 218.067 184.946 219.412C185.414 219.082 185.959 218.878 186.529 218.821C187.099 218.764 187.674 218.855 188.198 219.086C189.242 219.562 190.151 220.292 190.84 221.211C192.581 223.387 193.701 225.995 194.08 228.758C194.459 231.522 194.084 234.336 192.994 236.902C193.365 235.551 192.014 234.28 190.649 233.977C189.284 233.674 187.852 233.961 186.468 233.763C184.694 233.51 183.099 232.479 181.322 232.247C179.829 232.052 178.327 232.435 176.871 232.82C175.415 233.205 173.917 233.597 172.422 233.419C170.926 233.241 169 238.921 169.026 242.921C169.03 243.679 168.875 244.653 168.135 244.813C167.225 245.012 166.697 243.752 165.831 243.409C165.432 243.294 165.003 243.34 164.636 243.535C164.27 243.731 163.993 244.061 163.865 244.457C163.755 244.86 163.744 245.283 163.83 245.691C163.917 246.099 164.1 246.48 164.364 246.803C164.896 247.443 165.529 247.993 166.236 248.431L165.879 248.728C165.286 249.514 164.054 249.548 163.198 249.062C162.38 248.507 161.718 247.75 161.274 246.866C159.691 244.227 158.302 241.415 157.743 238.388C157.185 235.36 157.527 232.074 159.194 229.489Z" fill="#2F2E41"/>
<path d="M141.85 334.022C142.4 333.431 143.161 333.084 143.967 333.055C144.773 333.027 145.557 333.32 146.147 333.87L160.481 347.26C161.071 347.811 161.418 348.575 161.447 349.382C161.475 350.19 161.182 350.976 160.632 351.567C160.082 352.158 159.321 352.506 158.515 352.535C157.709 352.563 156.925 352.269 156.335 351.718L142.001 338.329C141.412 337.777 141.065 337.014 141.036 336.206C141.008 335.399 141.301 334.613 141.85 334.022Z" fill="#E6E6E6"/>
<path d="M176.726 372.051L166.467 386.773L165.989 387.35C165.158 388.352 164.01 389.038 162.736 389.296C162.556 389.332 162.374 389.36 162.192 389.378C161.968 389.401 161.742 389.41 161.516 389.405C161.387 389.403 161.258 389.396 161.129 389.385C160.38 389.32 159.652 389.108 158.986 388.759L154.609 385.696C154.261 385.452 154.012 385.09 153.909 384.677C153.859 384.473 153.844 384.261 153.867 384.052C153.899 383.758 154.004 383.477 154.173 383.236L166.806 365.108C167.074 364.724 167.483 364.462 167.943 364.38C168.404 364.299 168.877 364.403 169.261 364.671L176.29 369.591C176.307 369.602 176.323 369.614 176.339 369.626C176.35 369.634 176.36 369.642 176.37 369.65C176.384 369.661 176.398 369.672 176.411 369.683C176.428 369.697 176.445 369.711 176.461 369.726C176.476 369.74 176.491 369.753 176.505 369.767L176.514 369.775C176.532 369.793 176.55 369.812 176.567 369.83C176.585 369.848 176.602 369.868 176.619 369.887C176.63 369.901 176.642 369.915 176.654 369.929L176.655 369.931C176.689 369.973 176.721 370.017 176.751 370.063C176.76 370.077 176.769 370.091 176.778 370.106L176.782 370.112C176.789 370.123 176.796 370.135 176.803 370.147C176.823 370.181 176.842 370.217 176.86 370.254C176.89 370.314 176.916 370.376 176.939 370.439C176.946 370.459 176.953 370.479 176.959 370.5C176.965 370.516 176.97 370.533 176.974 370.551L176.976 370.554L176.977 370.561C176.982 370.576 176.986 370.591 176.99 370.605C176.997 370.634 177.003 370.662 177.009 370.691C177.011 370.699 177.012 370.707 177.014 370.715C177.016 370.723 177.017 370.731 177.018 370.739C177.02 370.747 177.021 370.755 177.022 370.762L177.024 370.775C177.028 370.798 177.031 370.822 177.033 370.845C177.037 370.874 177.039 370.904 177.04 370.933C177.042 370.957 177.043 370.981 177.043 371.005C177.044 371.027 177.044 371.048 177.044 371.07C177.044 371.076 177.044 371.081 177.043 371.087C177.043 371.109 177.042 371.131 177.04 371.154C177.037 371.21 177.03 371.266 177.022 371.321C177.018 371.342 177.015 371.362 177.011 371.382C177.006 371.407 177 371.431 176.995 371.455C176.993 371.464 176.99 371.474 176.988 371.482C176.984 371.496 176.981 371.509 176.977 371.523C176.973 371.537 176.968 371.553 176.964 371.567L176.952 371.602C176.945 371.623 176.938 371.643 176.93 371.664C176.926 371.676 176.921 371.688 176.916 371.7C176.88 371.788 176.838 371.873 176.789 371.954C176.783 371.964 176.777 371.974 176.771 371.984C176.756 372.006 176.742 372.029 176.726 372.051Z" fill="white"/>
<path d="M169.778 372.61C170.61 372.61 171.284 371.934 171.284 371.101C171.284 370.267 170.61 369.591 169.778 369.591C168.947 369.591 168.273 370.267 168.273 371.101C168.273 371.934 168.947 372.61 169.778 372.61Z" fill="#024873"/>
<path d="M152.766 387.049C152.17 386.377 151.728 385.582 151.472 384.72C151.215 383.858 151.151 382.95 151.282 382.061C151.414 381.171 151.739 380.321 152.234 379.571C152.728 378.82 153.381 378.188 154.147 377.718L146.163 339.621L156.744 343.699L162.87 380.094C163.573 381.434 163.76 382.987 163.397 384.457C163.034 385.927 162.146 387.212 160.901 388.069C159.655 388.927 158.139 389.296 156.64 389.108C155.141 388.92 153.762 388.188 152.766 387.049Z" fill="#FFCDB8"/>
<path d="M146.904 371.591L142.597 343.784L140.979 290.38L142.182 274.373C142.279 273.076 142.632 271.811 143.22 270.651C143.807 269.491 144.618 268.459 145.606 267.614C146.593 266.769 147.737 266.129 148.973 265.73C150.208 265.33 151.51 265.18 152.804 265.287C154.503 265.432 156.135 266.015 157.542 266.979C158.95 267.944 160.084 269.256 160.836 270.79L163.982 277.252L162.859 368.366L146.904 371.591Z" fill="#024873"/>
<path d="M282.352 513.201C282.353 513.306 282.332 513.41 282.292 513.507C282.252 513.604 282.194 513.693 282.12 513.767C282.046 513.841 281.958 513.9 281.861 513.94C281.764 513.98 281.66 514 281.556 514H67.0997C66.8884 514 66.6858 513.916 66.5363 513.766C66.3869 513.616 66.3029 513.413 66.3029 513.201C66.3029 512.99 66.3869 512.787 66.5363 512.637C66.6858 512.487 66.8884 512.403 67.0997 512.403H281.556C281.66 512.403 281.764 512.423 281.861 512.463C281.958 512.503 282.046 512.562 282.12 512.636C282.194 512.71 282.252 512.798 282.292 512.895C282.332 512.993 282.353 513.096 282.352 513.201Z" fill="#CCCCCC"/>
</g>
<defs>
<clipPath id="clip0_2_2">
<rect width="458" height="440" fill="white" transform="translate(108 74)"/>
</clipPath>
</defs>
</svg>
